<svg width="59" height="55" viewBox="0 0 59 55" fill="none" xmlns="http://www.w3.org/2000/svg">
<rect width="59" height="55" rx="7" fill="white"/>
<rect x="6" y="30" width="21" height="21" rx="3" fill="#74B3FF"/>
<rect x="32" y="30" width="21" height="21" rx="3" fill="#345BF4"/>
<rect x="32" y="3" width="21" height="21" rx="3" fill="#B5CDD7"/>
<path d="M10.5 16H11C12.3807 16 13.5 17.1193 13.5 18.5C13.5 19.8807 14.6193 21 16 21C17.3807 21 18.5 19.8807 18.5 18.5C18.5 17.1193 19.6193 16 21 16C22.3807 16 23.5 14.8807 23.5 13.5C23.5 12.1193 22.3807 11 21 11C19.6193 11 18.5 9.88071 18.5 8.5C18.5 7.11929 17.3807 6 16 6C14.6193 6 13.5 7.11929 13.5 8.5C13.5 9.88071 12.3807 11 11 11H10.5C9.11929 11 8 12.1193 8 13.5C8 14.8807 9.11929 16 10.5 16Z" fill="#3F49C3" stroke="#3F49C3"/>
</svg>
