<svg width="107" height="107" viewBox="0 0 107 107" fill="none" xmlns="http://www.w3.org/2000/svg">
<path d="M84.7083 44.584C88.2556 44.584 91.6576 45.9931 94.1659 48.5014C96.6741 51.0097 98.0833 54.4117 98.0833 57.959V71.334C98.0833 74.8813 96.6741 78.2832 94.1659 80.7915C91.6576 83.2998 88.2556 84.709 84.7083 84.709V89.0157C84.7083 93.7416 79.1978 96.3229 75.5687 93.2957L65.261 84.709H53.5C49.9527 84.709 46.5507 83.2998 44.0424 80.7915C41.5341 78.2832 40.125 74.8813 40.125 71.334V57.959C40.125 54.4117 41.5341 51.0097 44.0424 48.5014C46.5507 45.9931 49.9527 44.584 53.5 44.584H84.7083ZM71.3333 17.834C74.8806 17.834 78.2826 19.2431 80.7909 21.7514C83.2991 24.2597 84.7083 27.6617 84.7083 31.209V35.6673H49.0416C44.3119 35.6673 39.776 37.5462 36.4316 40.8906C33.0872 44.235 31.2083 48.771 31.2083 53.5006V71.334C31.2083 75.9885 32.9916 80.2328 35.9163 83.4071L31.2083 86.9381C27.5346 89.6934 22.2916 87.0719 22.2916 82.4798V75.7923C18.7444 75.7923 15.3424 74.3832 12.8341 71.8749C10.3258 69.3666 8.91663 65.9646 8.91663 62.4173V31.209C8.91663 27.6617 10.3258 24.2597 12.8341 21.7514C15.3424 19.2431 18.7444 17.834 22.2916 17.834H71.3333Z" fill="#345BF4"/>
</svg>
