<svg width="102" height="102" viewBox="0 0 102 102" fill="none" xmlns="http://www.w3.org/2000/svg">
<path d="M75.8924 22.802C63.3524 20.1829 63.2779 29.185 51.0164 29.185C40.408 29.185 40.0101 20.2849 26.1399 22.802C3.42799 26.9083 -0.0637173 76.878 11.985 79.4967C18.6744 80.95 22.0446 73.1926 30.8889 67.6247C32.2018 68.5952 33.7271 69.2388 35.3383 69.5021C36.9496 69.7654 38.6005 69.6409 40.154 69.1388C41.7075 68.6368 43.119 67.7716 44.2714 66.6151C45.4239 65.4586 46.284 64.0441 46.7806 62.4888C48.1877 62.3669 49.5996 62.3064 51.012 62.3075C52.4994 62.3075 53.8887 62.3713 55.2207 62.4864C55.7186 64.042 56.5802 65.4564 57.734 66.6124C58.8878 67.7684 60.3006 68.6327 61.8552 69.1336C63.4098 69.6345 65.0614 69.7575 66.6731 69.4925C68.2847 69.2275 69.81 68.582 71.1223 67.6097C79.9776 73.1779 83.3478 80.9434 90.0391 79.4883C102.086 76.8778 98.5049 27.5231 75.8924 22.802ZM29.3788 48.3504H24.1704V43.0546H18.872V37.8464H24.17V32.5486H29.3784V37.8442H34.6741V43.0526H29.3784V48.3483L29.3788 48.3504ZM36.9936 66.2034C35.6407 66.2034 34.3182 65.8022 33.1933 65.0505C32.0684 64.2989 31.1917 63.2305 30.674 61.9806C30.1563 60.7307 30.0209 59.3553 30.2848 58.0284C30.5488 56.7016 31.2003 55.4827 32.157 54.5261C33.1136 53.5695 34.3324 52.918 35.6593 52.6541C36.9862 52.3902 38.3616 52.5257 39.6115 53.0434C40.8614 53.5611 41.9297 54.4379 42.6813 55.5628C43.433 56.6877 43.8341 58.0102 43.8341 59.3631C43.8347 61.1772 43.1145 62.9173 41.8321 64.2004C40.5497 65.4836 38.8101 66.2048 36.996 66.2054L36.9936 66.2034ZM65.0041 66.2034C63.6514 66.2022 62.3294 65.7999 61.2053 65.0475C60.0811 64.295 59.2053 63.2261 58.6886 61.976C58.1719 60.7258 58.0375 59.3505 58.3023 58.024C58.5671 56.6974 59.2193 55.4792 60.1764 54.5232C61.1335 53.5673 62.3525 52.9166 63.6794 52.6534C65.0063 52.3902 66.3814 52.5263 67.6309 53.0446C68.8804 53.5628 69.9483 54.4399 70.6993 55.565C71.4504 56.69 71.8511 58.0125 71.8507 59.3653C71.8506 60.2641 71.6735 61.1541 71.3293 61.9844C70.9851 62.8147 70.4807 63.569 69.8448 64.2043C69.209 64.8395 68.4542 65.3432 67.6235 65.6866C66.7929 66.03 65.9027 66.2063 65.0039 66.2054L65.0041 66.2034ZM69.7226 43.8993C69.04 43.8994 68.3727 43.6971 67.8051 43.3179C67.2375 42.9388 66.795 42.3998 66.5338 41.7692C66.2725 41.1386 66.2041 40.4446 66.3372 39.7751C66.4704 39.1056 66.7991 38.4906 67.2817 38.008C67.7644 37.5253 68.3794 37.1966 69.0489 37.0635C69.7184 36.9303 70.4123 36.9987 71.043 37.26C71.6736 37.5213 72.2126 37.9637 72.5917 38.5313C72.9709 39.0989 73.1732 39.7662 73.1731 40.4488C73.1731 41.3641 72.8095 42.2419 72.1623 42.8891C71.5151 43.5363 70.6373 43.8999 69.722 43.8999L69.7226 43.8993ZM77.1969 51.374C76.5143 51.374 75.8471 51.1717 75.2796 50.7925C74.712 50.4133 74.2696 49.8744 74.0084 49.2438C73.7472 48.6132 73.6788 47.9193 73.8119 47.2498C73.945 46.5804 74.2737 45.9655 74.7563 45.4828C75.2389 45.0001 75.8538 44.6714 76.5232 44.5382C77.1927 44.405 77.8866 44.4733 78.5172 44.7345C79.1478 44.9956 79.6868 45.4379 80.066 46.0054C80.4453 46.5729 80.6477 47.2402 80.6478 47.9227C80.6481 48.3768 80.5587 48.8265 80.3849 49.246C80.2111 49.6655 79.9562 50.0466 79.6348 50.3674C79.3134 50.6882 78.9319 50.9424 78.5121 51.1155C78.0923 51.2886 77.6424 51.3771 77.1883 51.376L77.1969 51.374ZM77.1969 36.423C76.5143 36.4231 75.8471 36.2207 75.2795 35.8415C74.712 35.4623 74.2696 34.9234 74.0084 34.2928C73.7472 33.6622 73.6788 32.9683 73.8119 32.2988C73.9451 31.6294 74.2737 31.0144 74.7564 30.5318C75.239 30.0491 75.8539 29.7204 76.5234 29.5872C77.1928 29.454 77.8867 29.5224 78.5173 29.7836C79.1479 30.0448 79.6869 30.4871 80.0661 31.0546C80.4454 31.6222 80.6478 32.2894 80.6478 32.972C80.648 33.426 80.5587 33.8757 80.3848 34.2952C80.211 34.7146 79.9561 35.0957 79.6347 35.4165C79.3133 35.7373 78.9318 35.9915 78.512 36.1645C78.0922 36.3376 77.6424 36.4261 77.1883 36.425L77.1969 36.423ZM84.6712 43.8973C83.9886 43.8973 83.3214 43.6949 82.7539 43.3157C82.1863 42.9365 81.744 42.3975 81.4828 41.7669C81.2216 41.1363 81.1533 40.4424 81.2864 39.773C81.4196 39.1035 81.7483 38.4886 82.2309 38.006C82.7136 37.5233 83.3285 37.1946 83.9979 37.0615C84.6674 36.9283 85.3613 36.9967 85.9919 37.2579C86.6225 37.5191 87.1614 37.9614 87.5406 38.5289C87.9199 39.0965 88.1223 39.7637 88.1223 40.4462C88.1225 40.9004 88.0332 41.3501 87.8593 41.7696C87.6855 42.1891 87.4306 42.5702 87.1091 42.891C86.7877 43.2118 86.4061 43.4661 85.9863 43.6391C85.5664 43.8122 85.1165 43.9007 84.6624 43.8995L84.6712 43.8973Z" fill="#345BF4"/>
</svg>
