<svg width="138" height="51" viewBox="0 0 138 51" fill="none" xmlns="http://www.w3.org/2000/svg">
<rect x="86" y="30" width="21" height="21" rx="3" fill="#74B3FF"/>
<rect x="112" y="30" width="21" height="21" rx="3" fill="#345BF4"/>
<rect x="112" y="3" width="21" height="21" rx="3" fill="#B5CDD7"/>
<path d="M90.5 16H91C92.3807 16 93.5 17.1193 93.5 18.5C93.5 19.8807 94.6193 21 96 21C97.3807 21 98.5 19.8807 98.5 18.5C98.5 17.1193 99.6193 16 101 16C102.381 16 103.5 14.8807 103.5 13.5C103.5 12.1193 102.381 11 101 11C99.6193 11 98.5 9.88071 98.5 8.5C98.5 7.11929 97.3807 6 96 6C94.6193 6 93.5 7.11929 93.5 8.5C93.5 9.88071 92.3807 11 91 11H90.5C89.1193 11 88 12.1193 88 13.5C88 14.8807 89.1193 16 90.5 16Z" fill="#3F49C3" stroke="#3F49C3"/>
<path d="M6.71 43.9L5.84 39.7C7.26 39.52 8.5 39.3 9.56 39.04C10.62 38.8 11.51 38.46 12.23 38.02C12.95 37.58 13.49 36.98 13.85 36.22C14.21 35.44 14.39 34.44 14.39 33.22C14.39 32.04 14.21 31.1 13.85 30.4C13.49 29.7 13.01 29.35 12.41 29.35C11.99 29.35 11.64 29.5 11.36 29.8C11.08 30.08 10.87 30.42 10.73 30.82C10.61 31.2 10.55 31.54 10.55 31.84C10.55 32.02 10.6 32.21 10.7 32.41C10.8 32.61 11.02 32.78 11.36 32.92C11.7 33.06 12.23 33.14 12.95 33.16C13.69 33.18 14.69 33.11 15.95 32.95H20.99C21.75 32.95 22.29 33.15 22.61 33.55C22.95 33.93 23.12 34.41 23.12 34.99C23.12 35.61 22.91 36.13 22.49 36.55C22.07 36.95 21.47 37.15 20.69 37.15H12.44C11.18 37.15 10.1 37 9.2 36.7C8.3 36.4 7.61 35.92 7.13 35.26C6.65 34.58 6.41 33.68 6.41 32.56C6.41 31.66 6.56 30.76 6.86 29.86C7.18 28.96 7.62 28.14 8.18 27.4C8.74 26.64 9.39 26.04 10.13 25.6C10.89 25.14 11.71 24.91 12.59 24.91C13.79 24.91 14.84 25.28 15.74 26.02C16.64 26.76 17.34 27.74 17.84 28.96C18.36 30.18 18.62 31.51 18.62 32.95C18.62 35.21 18.14 37.13 17.18 38.71C16.22 40.29 14.85 41.51 13.07 42.37C11.29 43.25 9.17 43.76 6.71 43.9ZM20.7324 37.15L21.0324 32.95C21.7924 32.95 22.3924 32.88 22.8324 32.74C23.2924 32.6 23.6524 32.32 23.9124 31.9C24.1924 31.46 24.4224 30.82 24.6024 29.98C24.8024 29.14 25.0024 28.02 25.2024 26.62L29.1324 27.28C29.0924 27.58 29.0324 27.93 28.9524 28.33C28.8924 28.73 28.8324 29.14 28.7724 29.56C28.7324 29.96 28.7124 30.34 28.7124 30.7C28.7124 31.18 28.8124 31.59 29.0124 31.93C29.2324 32.25 29.6124 32.5 30.1524 32.68C30.7124 32.86 31.5124 32.95 32.5524 32.95C33.3124 32.95 33.8524 33.15 34.1724 33.55C34.4924 33.93 34.6524 34.41 34.6524 34.99C34.6524 35.61 34.4424 36.13 34.0224 36.55C33.6224 36.95 33.0324 37.15 32.2524 37.15C30.8724 37.15 29.7524 37.02 28.8924 36.76C28.0324 36.5 27.3924 36.06 26.9724 35.44C26.5524 34.82 26.2824 33.97 26.1624 32.89H27.6024C27.2424 33.85 26.8224 34.62 26.3424 35.2C25.8624 35.76 25.3224 36.18 24.7224 36.46C24.1224 36.74 23.4824 36.92 22.8024 37C22.1424 37.1 21.4524 37.15 20.7324 37.15ZM26.8524 23.56C26.2324 23.56 25.7024 23.35 25.2624 22.93C24.8424 22.51 24.6324 21.99 24.6324 21.37C24.6324 20.75 24.8424 20.22 25.2624 19.78C25.7024 19.34 26.2324 19.12 26.8524 19.12C27.4524 19.12 27.9624 19.34 28.3824 19.78C28.8224 20.22 29.0424 20.75 29.0424 21.37C29.0424 21.99 28.8224 22.51 28.3824 22.93C27.9624 23.35 27.4524 23.56 26.8524 23.56ZM32.2461 37.15L32.5461 32.95C33.2661 32.95 33.8861 32.88 34.4061 32.74C34.9261 32.6 35.3661 32.32 35.7261 31.9C36.0861 31.46 36.3861 30.82 36.6261 29.98C36.8861 29.14 37.1161 28.02 37.3161 26.62L41.2461 27.28C41.2061 27.58 41.1461 27.93 41.0661 28.33C41.0061 28.73 40.9461 29.14 40.8861 29.56C40.8461 29.96 40.8261 30.34 40.8261 30.7C40.8261 31.06 40.8961 31.38 41.0361 31.66C41.1761 31.94 41.3961 32.18 41.6961 32.38C42.0161 32.56 42.4261 32.7 42.9261 32.8C43.4461 32.9 44.0761 32.95 44.8161 32.95C45.5761 32.95 46.1161 33.15 46.4361 33.55C46.7561 33.93 46.9161 34.41 46.9161 34.99C46.9161 35.61 46.7061 36.13 46.2861 36.55C45.8861 36.95 45.2961 37.15 44.5161 37.15C43.6161 37.15 42.7961 37.08 42.0561 36.94C41.3361 36.8 40.7061 36.57 40.1661 36.25C39.6461 35.91 39.2161 35.47 38.8761 34.93C38.5561 34.37 38.3561 33.69 38.2761 32.89H39.7161C39.3561 33.85 38.8961 34.62 38.3361 35.2C37.7961 35.76 37.1861 36.18 36.5061 36.46C35.8261 36.74 35.1161 36.92 34.3761 37C33.6561 37.1 32.9461 37.15 32.2461 37.15ZM40.6161 44.11C40.0361 44.11 39.5361 43.9 39.1161 43.48C38.7161 43.08 38.5161 42.6 38.5161 42.04C38.5161 41.46 38.7161 40.96 39.1161 40.54C39.5361 40.12 40.0361 39.91 40.6161 39.91C41.1761 39.91 41.6561 40.12 42.0561 40.54C42.4561 40.96 42.6561 41.46 42.6561 42.04C42.6561 42.6 42.4561 43.08 42.0561 43.48C41.6561 43.9 41.1761 44.11 40.6161 44.11ZM35.4261 44.11C34.8461 44.11 34.3461 43.9 33.9261 43.48C33.5261 43.08 33.3261 42.6 33.3261 42.04C33.3261 41.46 33.5261 40.96 33.9261 40.54C34.3461 40.12 34.8461 39.91 35.4261 39.91C35.9861 39.91 36.4661 40.12 36.8661 40.54C37.2661 40.96 37.4661 41.46 37.4661 42.04C37.4661 42.6 37.2661 43.08 36.8661 43.48C36.4661 43.9 35.9861 44.11 35.4261 44.11ZM44.5215 37.15L44.8215 32.95C45.7615 32.95 46.4215 32.86 46.8015 32.68C47.2015 32.48 47.4415 32.12 47.5215 31.6C47.6015 31.06 47.6215 30.28 47.5815 29.26L47.1015 15.04H51.3615L51.8715 29.23C51.9115 30.23 52.0315 31 52.2315 31.54C52.4315 32.08 52.7615 32.45 53.2215 32.65C53.7015 32.85 54.3415 32.95 55.1415 32.95C55.9015 32.95 56.4415 33.15 56.7615 33.55C57.0815 33.93 57.2415 34.41 57.2415 34.99C57.2415 35.61 57.0315 36.13 56.6115 36.55C56.1915 36.95 55.6015 37.15 54.8415 37.15C53.9615 37.15 53.1415 37.05 52.3815 36.85C51.6215 36.65 50.9915 36.27 50.4915 35.71C49.9915 35.15 49.6615 34.34 49.5015 33.28L50.8215 33.31C50.4815 34.35 50.0415 35.15 49.5015 35.71C48.9615 36.25 48.2815 36.63 47.4615 36.85C46.6615 37.05 45.6815 37.15 44.5215 37.15ZM54.834 37.15L55.134 32.95C56.214 32.95 57.284 32.89 58.344 32.77C59.404 32.65 60.434 32.47 61.434 32.23C62.434 31.99 63.384 31.68 64.284 31.3C65.204 30.92 66.064 30.46 66.864 29.92C66.264 29.56 65.614 29.25 64.914 28.99C64.214 28.73 63.464 28.54 62.664 28.42C61.884 28.28 61.054 28.21 60.174 28.21C59.854 28.21 59.514 28.22 59.154 28.24C58.814 28.26 58.464 28.3 58.104 28.36C57.744 28.4 57.384 28.46 57.024 28.54L56.424 24.43C57.004 24.27 57.614 24.16 58.254 24.1C58.914 24.02 59.494 23.98 59.994 23.98C61.074 23.98 62.064 24.1 62.964 24.34C63.884 24.58 64.724 24.88 65.484 25.24C66.264 25.6 66.984 25.96 67.644 26.32C68.324 26.68 68.964 26.98 69.564 27.22C70.184 27.46 70.784 27.58 71.364 27.58H72.474L72.954 31.57C72.094 31.61 71.284 31.78 70.524 32.08C69.784 32.36 69.044 32.72 68.304 33.16C67.584 33.58 66.804 34.02 65.964 34.48C65.144 34.94 64.214 35.37 63.174 35.77C62.134 36.17 60.934 36.5 59.574 36.76C58.214 37.02 56.634 37.15 54.834 37.15Z" fill="#315FF1"/>
</svg>
