<svg width="30" height="30" viewBox="0 0 30 30" fill="none" xmlns="http://www.w3.org/2000/svg">
<path d="M0 0V30H30V0H0ZM16.326 23.398C16.326 26.318 14.614 27.646 12.116 27.646C9.862 27.646 8.553 26.478 7.888 25.07L10.184 23.68C10.627 24.456 11.03 25.12 11.996 25.12C12.922 25.12 13.506 24.767 13.506 23.35V13.77H16.326V23.398ZM22.992 27.646C20.374 27.646 18.682 26.398 17.857 24.766L20.152 23.439C20.756 24.417 21.542 25.149 22.932 25.149C24.099 25.149 24.835 24.565 24.835 23.753C24.835 22.787 24.069 22.443 22.781 21.888L22.081 21.578C20.047 20.713 18.698 19.625 18.698 17.328C18.698 15.215 20.302 13.603 22.826 13.603C24.618 13.603 25.906 14.228 26.834 15.857L24.644 17.262C24.164 16.402 23.638 16.052 22.832 16.052C22.008 16.052 21.48 16.574 21.48 17.262C21.48 18.114 22 18.45 23.21 18.972L23.913 19.282C26.31 20.302 27.66 21.352 27.66 23.712C27.667 26.256 25.674 27.642 22.995 27.642L22.992 27.646Z" fill="white"/>
</svg>
