<svg width="22" height="22" viewBox="0 0 22 22" fill="none" xmlns="http://www.w3.org/2000/svg">
<path d="M19.7656 11C19.7663 11.2693 19.6972 11.5342 19.5652 11.769C19.4332 12.0037 19.2427 12.2003 19.0123 12.3396L4.73094 21.079C4.49016 21.2265 4.21438 21.307 3.9321 21.3122C3.64981 21.3175 3.37125 21.2472 3.12518 21.1087C2.88145 20.9724 2.67841 20.7736 2.53696 20.5328C2.3955 20.2919 2.32072 20.0178 2.32031 19.7384V2.26157C2.32072 1.98224 2.3955 1.70805 2.53696 1.46722C2.67841 1.22638 2.88145 1.02758 3.12518 0.89126C3.37125 0.752791 3.64981 0.682543 3.9321 0.687772C4.21438 0.693001 4.49016 0.773518 4.73094 0.921007L19.0123 9.66043C19.2427 9.79971 19.4332 9.99628 19.5652 10.231C19.6972 10.4658 19.7663 10.7307 19.7656 11Z" fill="white"/>
</svg>
