<svg width="24" height="24" viewBox="0 0 24 24" fill="none" xmlns="http://www.w3.org/2000/svg">
<g clip-path="url(#clip0_1798_32)">
<mask id="mask0_1798_32" style="mask-type:luminance" maskUnits="userSpaceOnUse" x="0" y="0" width="24" height="24">
<path d="M0 0H24V24H0V0Z" fill="white"/>
</mask>
<g mask="url(#mask0_1798_32)">
<path d="M11.914 0C5.82 0 6.2 2.656 6.2 2.656L6.207 5.408H12.021V6.234H3.9C3.9 6.234 0 5.789 0 11.969C0 18.149 3.403 17.929 3.403 17.929H5.433V15.062C5.433 15.062 5.324 11.642 8.783 11.642H14.549C14.549 11.642 17.789 11.694 17.789 8.494V3.202C17.789 3.202 18.281 0 11.914 0ZM8.708 1.85C9.286 1.85 9.754 2.32 9.754 2.902C9.754 3.483 9.286 3.953 8.708 3.953C8.13 3.953 7.662 3.483 7.662 2.902C7.662 2.32 8.129 1.85 8.708 1.85Z" fill="white"/>
<path d="M12.0869 24.0003C18.1789 24.0003 17.7989 21.3443 17.7989 21.3443L17.7919 18.5923H11.9779V17.7663H20.1009C20.1009 17.7663 24.0009 18.2113 24.0009 12.0313C24.0009 5.85128 20.5969 6.07128 20.5969 6.07128H18.5669V8.93828C18.5669 8.93828 18.6759 12.3583 15.2169 12.3583H9.45194C9.45194 12.3583 6.21194 12.3063 6.21194 15.5063V20.7983C6.21194 20.7983 5.71994 24.0003 12.0869 24.0003ZM15.2929 22.1503C14.7139 22.1503 14.2469 21.6803 14.2469 21.0983C14.2469 20.5173 14.7139 20.0473 15.2929 20.0473C15.8709 20.0473 16.3389 20.5173 16.3389 21.0983C16.3389 21.6803 15.8709 22.1503 15.2929 22.1503Z" fill="white"/>
</g>
</g>
<defs>
<clipPath id="clip0_1798_32">
<rect width="24" height="24" fill="white"/>
</clipPath>
</defs>
</svg>
