<svg width="25" height="24" viewBox="0 0 25 24" fill="none" xmlns="http://www.w3.org/2000/svg">
<path d="M4.23635 13.0417C4.43306 14.4816 5.03436 15.843 5.97577 16.9798C6.91717 18.1166 8.16318 18.986 9.58014 19.4947C10.9971 20.0034 12.5316 20.1321 14.019 19.8672C15.5064 19.6023 16.8907 18.9537 18.0233 17.991C19.1559 17.0282 19.9942 15.7876 20.4482 14.4023C20.9022 13.017 20.9548 11.5391 20.6004 10.1272C20.2459 8.71537 19.4979 7.42275 18.4364 6.38801C17.3749 5.35327 16.04 4.61544 14.5749 4.25366C10.5134 3.25366 6.30927 5.26066 4.75719 9.00066" stroke="black" stroke-width="2" stroke-linecap="round" stroke-linejoin="round"/>
<path d="M4.16667 4V9H9.375" stroke="black" stroke-width="2" stroke-linecap="round" stroke-linejoin="round"/>
</svg>
